<?xml version="1.0" encoding="UTF-8"?>
<svg id="Livello_2" data-name="Livello 2" xmlns="http://www.w3.org/2000/svg" viewBox="0 0 408.78 108.43">
  <defs>
    <style>
      .cls-1 {
        fill: #fff;
      }
    </style>
  </defs>
  <g id="Livello_1-2" data-name="Livello 1">
    <g>
      <g>
        <g>
          <path class="cls-1" d="M306.14,38.26h13.39c6.74,0,11.41,4.53,11.41,11.27v.05c0,6.72-4.67,11.32-11.41,11.32h-8.05v11.74h-5.34v-34.38ZM311.48,42.76v13.65h6.72c4.62,0,7.31-2.5,7.31-6.81v-.05c0-4.29-2.69-6.79-7.31-6.79h-6.72Z"/>
          <path class="cls-1" d="M334.88,38.26h13.56c7.05,0,11.44,4.1,11.44,10.48v.05c0,4.62-2.48,8.39-6.67,9.79l7.72,14.06h-6.17l-7-13.22h-7.53v13.22h-5.34v-34.38ZM347.91,55.08c4.1,0,6.48-2.24,6.48-6.15v-.05c0-3.81-2.53-6.15-6.65-6.15h-7.53v12.34h7.7Z"/>
          <path class="cls-1" d="M363.13,55.46v-.05c0-11.05,6.19-17.99,16.06-17.99s16.03,6.96,16.03,17.99v.05c0,11.01-6.1,18.01-16.03,18.01s-16.06-6.98-16.06-18.01ZM389.76,55.46v-.05c0-8.12-4.07-13.27-10.58-13.27s-10.6,5.15-10.6,13.27v.05c0,8.05,3.98,13.29,10.6,13.29s10.58-5.24,10.58-13.29Z"/>
        </g>
        <path class="cls-1" d="M398.62,28.54c3.31,0,6,2.69,6,6v41.82c0,3.31-2.69,6-6,6h-98.29c-3.31,0-6-2.69-6-6v-41.82c0-3.31,2.69-6,6-6h98.29M398.62,24.38h-98.29c-5.61,0-10.16,4.55-10.16,10.16v41.82c0,5.61,4.55,10.16,10.16,10.16h98.29c5.61,0,10.16-4.55,10.16-10.16v-41.82c0-5.61-4.55-10.16-10.16-10.16h0Z"/>
      </g>
      <g>
        <g>
          <path class="cls-1" d="M25.98,14.99H0V3.95h64.72v11.04h-25.92v71.53h-12.82V14.99Z"/>
          <path class="cls-1" d="M56.76,69.07v-.11c0-11.1,8.35-17.57,23.17-18.48l16.82-.97v-5.49c0-6.81-4.29-10.59-12.7-10.59-6.87,0-11.39,2.52-12.88,6.92l-.06.23h-11.96l.06-.4c1.49-10.19,11.27-16.99,25.41-16.99,15.62,0,24.43,7.78,24.43,20.83v42.51h-12.3v-8.81h-.97c-3.66,6.29-10.19,9.84-18.43,9.84-11.84,0-20.6-7.21-20.6-18.48ZM80.68,77.65c9.27,0,16.08-6.07,16.08-14.08v-5.32l-15.16.97c-8.58.51-12.47,3.6-12.47,9.21v.11c0,5.72,4.86,9.1,11.56,9.1Z"/>
          <path class="cls-1" d="M118.79,91.15l.11-.11h12.53l.06.11c1.03,4.29,6.07,7.32,14.48,7.32,10.24,0,16.31-4.81,16.31-13.27v-12.25h-.92c-3.78,6.75-10.64,10.53-19.17,10.53-15.96,0-25.81-12.3-25.81-29.81v-.11c0-17.74,9.9-30.27,26.04-30.27,8.7,0,15.45,4.29,19.05,11.27h.74v-10.19h12.36v60.88c0,14.13-11.16,23.17-28.78,23.17-15.79,0-25.52-6.92-27.01-17.28ZM162.51,53.62v-.11c0-11.56-6.41-19.68-16.88-19.68s-16.54,8.13-16.54,19.68v.11c0,11.56,5.95,19.63,16.54,19.63s16.88-8.01,16.88-19.63Z"/>
          <path class="cls-1" d="M185.97,0h12.42v86.52h-12.42V0Z"/>
          <path class="cls-1" d="M210.86,108.09v-9.78c1.2.17,2.75.23,4.18.23,5.78,0,9.21-2.46,11.1-8.75l.92-3.2-22.54-62.2h13.39l15.56,49.67h1.09l15.51-49.67h13.05l-23.12,64.54c-5.26,14.88-11.56,19.46-24.15,19.46-1.54,0-3.38-.11-4.98-.29Z"/>
        </g>
        <path class="cls-1" d="M255.52,79.01c0-4.25,3.31-7.56,7.61-7.56s7.56,3.31,7.56,7.56-3.26,7.51-7.56,7.51-7.61-3.31-7.61-7.51Z"/>
      </g>
    </g>
  </g>
</svg>